<mxfile host="app.diagrams.net" modified="2024-05-28T09:29:20.584Z" agent="Mozilla/5.0 (Macintosh; Intel Mac OS X 10_15_7) AppleWebKit/537.36 (KHTML, like Gecko) Chrome/124.0.0.0 Safari/537.36" version="24.4.3" etag="UWYEAMSChk1aHrBZ4T0V" type="github">
  <diagram name="第 1 页" id="JTngbzJ1YcSNERTpBpQc">
    <mxGraphModel>
      <root>
        <mxCell id="0" />
        <mxCell id="1" parent="0" />
      </root>
    </mxGraphModel>
  </diagram>
</mxfile>
